<svg xmlns="http://www.w3.org/2000/svg" viewBox="0 0 448 512"><!--! Font Awesome Pro 6.1.1 by @fontawesome - https://fontawesome.com License - https://fontawesome.com/license (Commercial License) Copyright 2022 Fonticons, Inc. --><path d="M 118.821 473.718 L 25.941 473.718 L 25.941 174.618 L 118.821 174.618 L 118.821 473.718 Z M 72.331 133.818 C 42.631 133.818 18.541 109.218 18.541 79.518 C 18.541 38.111 63.366 12.231 99.226 32.935 C 115.869 42.544 126.121 60.301 126.121 79.518 C 126.121 109.218 102.021 133.818 72.331 133.818 Z M 466.441 473.718 L 373.761 473.718 L 373.761 328.118 C 373.761 293.418 373.061 248.918 325.471 248.918 C 277.181 248.918 269.781 286.618 269.781 325.618 L 269.781 473.718 L 177.001 473.718 L 177.001 174.618 L 266.081 174.618 L 266.081 215.418 L 267.381 215.418 C 279.781 191.918 310.071 167.118 355.261 167.118 C 449.261 167.118 466.541 229.018 466.541 309.418 L 466.541 473.718 L 466.441 473.718 Z" style="fill: rgb(14, 118, 168);"/></svg>