<svg xmlns="http://www.w3.org/2000/svg" viewBox="0 0 576 512"><!--! Font Awesome Pro 6.1.1 by @fontawesome - https://fontawesome.com License - https://fontawesome.com/license (Commercial License) Copyright 2022 Fonticons, Inc. --><path d="M 546.738 139.354 C 540.457 115.704 521.951 97.078 498.454 90.757 C 455.864 79.271 285.083 79.271 285.083 79.271 C 285.083 79.271 114.303 79.271 71.712 90.757 C 48.215 97.079 29.709 115.704 23.428 139.354 C 12.016 182.221 12.016 271.659 12.016 271.659 C 12.016 271.659 12.016 361.097 23.428 403.964 C 29.709 427.614 48.215 445.464 71.712 451.785 C 114.303 463.271 285.083 463.271 285.083 463.271 C 285.083 463.271 455.863 463.271 498.454 451.785 C 521.951 445.464 540.457 427.614 546.738 403.964 C 558.15 361.097 558.15 271.659 558.15 271.659 C 558.15 271.659 558.15 182.221 546.738 139.354 Z M 229.228 352.862 L 229.228 190.456 L 371.967 271.661 L 229.228 352.862 Z" style="fill: rgb(255, 0, 0);"/></svg>